<svg width="300" height="300" viewBox="0 0 300 300" fill="none" xmlns="http://www.w3.org/2000/svg">
<path d="M41.6016 269.531L17.5781 0H281.836L257.812 269.531L149.414 300" fill="#E34F26"/>
<path d="M150 276.562L237.305 252.539L257.812 21.6797H150" fill="#EF652A"/>
<path d="M150 121.875H106.055L103.125 87.8906H150V55.0781H149.414H66.7969L67.3828 63.8672L75.5859 155.273H150V121.875ZM150 208.008H149.414L112.5 198.047L110.156 171.68H92.5781H77.3438L81.4453 223.828L149.414 242.578H150V208.008Z" fill="#EBEBEB"/>
<path d="M149.414 121.875V155.273H190.43L186.328 198.047L149.414 208.008V242.578L217.383 223.828L217.969 217.969L225.586 130.664L226.758 121.875H217.383H149.414ZM149.414 55.0781V75.5859V87.8906H229.688L230.273 80.8594L232.031 63.8672L232.617 55.0781H149.414Z" fill="white"/>
</svg>
