<svg width="351" height="238" viewBox="0 0 351 238" fill="none" xmlns="http://www.w3.org/2000/svg">
<g clip-path="url(#clip0)">
<rect x="-95" y="-97" width="601" height="429" fill="white"/>
<path d="M84.0518 216.912H70.5154C70.0367 194.063 68.7184 172.583 66.563 152.455H66.4427L45.8333 216.912H35.5273L15.0409 152.455H14.9232C13.4035 171.78 12.4461 193.266 12.0485 216.912H-0.289917C0.505266 188.157 2.50369 161.199 5.6975 136.036H22.4748L42.0013 195.463H42.1216L61.7684 136.036H77.8211C81.3367 165.51 83.4136 192.471 84.0518 216.912V216.912ZM142.757 157.242C137.245 187.15 129.974 208.882 120.949 222.447C113.918 232.889 106.215 238.115 97.8263 238.115C95.5898 238.115 92.8302 237.44 89.5606 236.101V228.889C91.1588 229.12 93.0342 229.25 95.1896 229.25C99.108 229.25 102.257 228.173 104.659 226.012C107.531 223.381 108.967 220.422 108.967 217.15C108.967 214.906 107.847 210.318 105.613 203.37L90.7586 157.239H104.057L114.719 191.741C117.115 199.575 118.114 205.044 117.714 208.16C123.544 192.588 127.617 175.61 129.937 157.237H142.757V157.242V157.242Z" fill="#5D87A1"/>
<path d="M322.941 216.912H284.49V136.036H297.425V206.957H322.941V216.912ZM274.425 218.866L259.557 211.529C260.875 210.446 262.136 209.274 263.271 207.917C269.591 200.493 272.743 189.515 272.743 174.974C272.743 148.218 262.243 134.833 241.236 134.833C230.936 134.833 222.9 138.228 217.153 145.021C210.839 152.45 207.687 163.389 207.687 177.851C207.687 192.068 210.481 202.497 216.07 209.112C221.184 215.105 228.893 218.105 239.201 218.105C243.046 218.105 246.575 217.634 249.79 216.685L269.146 227.953L274.425 218.866ZM226.261 200.729C222.986 195.46 221.349 187.001 221.349 175.338C221.349 154.974 227.535 144.781 239.921 144.781C246.395 144.781 251.14 147.219 254.174 152.084C257.443 157.36 259.089 165.743 259.089 177.245C259.089 197.775 252.897 208.042 240.52 208.042C234.043 208.045 229.298 205.615 226.261 200.729V200.729ZM202.05 194.495C202.05 201.354 199.534 206.98 194.506 211.388C189.474 215.777 182.725 217.977 174.268 217.977C166.358 217.977 158.689 215.45 151.266 210.422L154.742 203.478C161.13 206.677 166.913 208.267 172.105 208.267C176.978 208.267 180.787 207.187 183.549 205.045C186.309 202.894 187.954 199.878 187.954 196.065C187.954 191.26 184.603 187.153 178.456 183.713C172.788 180.6 161.451 174.093 161.451 174.093C155.307 169.614 152.231 164.807 152.231 156.886C152.231 150.331 154.525 145.04 159.115 141.014C163.711 136.973 169.641 134.959 176.91 134.959C184.417 134.959 191.242 136.97 197.389 140.951L194.271 147.899C189.013 145.665 183.824 144.548 178.705 144.548C174.559 144.548 171.357 145.544 169.131 147.545C166.887 149.539 165.503 152.089 165.503 155.217C165.503 159.999 168.924 164.158 175.239 167.666C180.983 170.784 192.602 177.404 192.602 177.404C198.903 181.874 202.05 186.638 202.05 194.495" fill="#F8981D"/>
<path d="M339.18 108.948C331.359 108.749 325.304 109.536 320.221 111.686C318.754 112.272 316.421 112.272 316.217 114.127C317.009 114.911 317.101 116.177 317.789 117.26C318.96 119.214 321.003 121.843 322.868 123.214C324.916 124.783 326.972 126.337 329.128 127.705C332.928 130.057 337.237 131.425 340.94 133.768C343.098 135.131 345.243 136.894 347.404 138.362C348.466 139.144 349.146 140.412 350.524 140.901V140.603C349.834 139.724 349.638 138.453 348.96 137.475L346.025 134.645C343.19 130.836 339.667 127.511 335.866 124.781C332.737 122.625 325.895 119.696 324.626 116.091L324.427 115.892C326.577 115.691 329.128 114.911 331.171 114.312C334.495 113.436 337.527 113.635 340.938 112.759C342.507 112.366 344.064 111.875 345.638 111.391V110.509C343.87 108.749 342.609 106.41 340.749 104.747C335.774 100.449 330.292 96.2456 324.626 92.7274C321.592 90.7683 317.689 89.5075 314.459 87.8412C313.295 87.2527 311.333 86.9624 310.648 85.9841C308.895 83.8339 307.909 81.0037 306.638 78.4586C303.813 73.0885 301.069 67.1299 298.631 61.4511C296.868 57.6426 295.795 53.8393 293.645 50.3159C283.575 33.706 272.638 23.6459 255.83 13.7715C252.217 11.7156 247.92 10.8393 243.329 9.7616L235.997 9.37447C234.433 8.68915 232.866 6.82936 231.501 5.95047C225.924 2.43493 211.566 -5.1847 207.465 4.87541C204.823 11.2343 211.373 17.4859 213.622 20.7111C215.283 22.9501 217.436 25.4978 218.597 28.0403C219.285 29.7013 219.479 31.4643 220.167 33.2195C221.731 37.5198 223.193 42.3039 225.249 46.3165C226.322 48.362 227.491 50.5121 228.861 52.364C229.646 53.447 231.012 53.9256 231.31 55.6913C229.947 57.6374 229.84 60.5748 229.058 63.0179C225.542 74.0589 226.915 87.7366 231.898 95.8506C233.457 98.2937 237.177 103.672 242.152 101.61C246.557 99.8527 245.581 94.2838 246.847 89.4002C247.138 88.2205 246.947 87.4463 247.533 86.672V86.863C248.895 89.5964 250.271 92.2304 251.535 94.9717C254.566 99.7559 259.845 104.742 264.242 108.056C266.583 109.824 268.437 112.848 271.37 113.928V113.635H271.176C270.582 112.759 269.714 112.366 268.934 111.686C267.171 109.926 265.22 107.776 263.852 105.824C259.756 100.35 256.13 94.289 252.913 88.0348C251.338 85.0006 249.981 81.6838 248.712 78.6548C248.121 77.4856 248.121 75.7225 247.14 75.134C245.67 77.2815 243.528 79.1413 242.455 81.7727C240.596 85.9814 240.402 91.158 239.712 96.5412L239.327 96.7295C236.214 95.9474 235.131 92.7274 233.949 89.994C231.022 83.0518 230.53 71.9088 233.07 63.8994C233.75 61.8513 236.693 55.4009 235.518 53.4496C234.93 51.5793 232.973 50.5147 231.901 49.0421C230.64 47.1901 229.259 44.8464 228.38 42.7905C226.036 37.321 224.857 31.2603 222.333 25.7934C221.153 23.2457 219.105 20.609 217.446 18.2627C215.584 15.6261 213.536 13.7689 212.063 10.6431C211.577 9.56804 210.894 7.81026 211.676 6.64103C211.867 5.85631 212.265 5.56335 213.044 5.36717C214.31 4.29733 217.928 5.65751 219.196 6.24605C222.819 7.71086 225.848 9.07889 228.872 11.1296C230.24 12.1105 231.707 13.9677 233.463 14.4568H235.518C238.639 15.1369 242.157 14.6452 245.095 15.5293C250.271 17.1929 254.961 19.6334 259.167 22.2674C271.966 30.384 282.521 41.9168 289.646 55.6913C290.815 57.9356 291.312 59.9915 292.379 62.3326C294.438 67.1246 296.983 72.0108 299.026 76.7008C301.079 81.2914 303.036 85.9788 305.968 89.7926C307.43 91.8433 313.305 92.9184 315.939 93.9935C317.888 94.8697 320.922 95.6492 322.68 96.7243C326.005 98.7724 329.316 101.124 332.442 103.376C333.998 104.548 338.89 106.991 339.18 108.948V108.948ZM239.505 24.0304C238.156 24.0164 236.811 24.1818 235.505 24.5222V24.7184H235.694C236.481 26.28 237.849 27.3629 238.825 28.7257C239.612 30.2925 240.295 31.8462 241.066 33.4104L241.255 33.2169C242.633 32.2412 243.319 30.677 243.319 28.3307C242.725 27.6401 242.633 26.9653 242.139 26.28C241.563 25.3017 240.295 24.8152 239.505 24.0304" fill="#5D87A1"/>
<path d="M348.487 216.899H350.511V206.99H347.474L344.997 213.752L342.306 206.99H339.381V216.899H341.293V209.36H341.401L344.22 216.899H345.677L348.487 209.36V216.899ZM332.178 216.899H334.32V208.67H337.124V206.988H329.256V208.67H332.172L332.178 216.899Z" fill="#F8981D"/>
</g>
<defs>
<clipPath id="clip0">
<rect width="500" height="346.6" fill="white" transform="translate(-69 -63)"/>
</clipPath>
</defs>
</svg>
