<svg width="292" height="291" viewBox="0 0 292 291" fill="none" xmlns="http://www.w3.org/2000/svg">
<path d="M146.267 283.94C69.9194 283.94 7.80347 221.811 7.80347 145.437C7.80347 69.0623 69.9194 6.93311 146.267 6.93311C222.615 6.93311 284.731 69.0682 284.731 145.44C284.731 221.811 222.615 283.94 146.267 283.94Z" fill="#85EA2D"/>
<path d="M146.267 13.8643C218.913 13.8643 277.8 72.7695 277.8 145.437C277.8 218.102 218.913 277.01 146.267 277.01C73.6248 277.01 14.7348 218.102 14.7348 145.437C14.7348 72.7724 73.6248 13.8643 146.267 13.8643ZM146.267 0C66.0975 0 0.874756 65.2428 0.874756 145.437C0.874756 225.632 66.0975 290.874 146.267 290.874C226.437 290.874 291.663 225.632 291.663 145.437C291.663 65.2428 226.437 0 146.267 0Z" fill="#173647"/>
<path d="M92.4254 98.4197C91.9779 103.397 92.5911 108.542 92.2598 113.575C91.8674 118.61 91.2513 123.587 90.2457 128.564C88.8478 135.666 84.4303 141.036 78.3387 145.51C90.1934 153.229 91.5332 165.195 92.315 177.332C92.7073 183.876 92.5388 190.475 93.2101 196.961C93.7129 201.994 95.6688 203.281 100.871 203.447C102.996 203.502 105.172 203.447 107.637 203.447V218.995C92.2627 221.623 79.571 217.262 76.438 204.232C75.4295 199.479 74.7582 194.612 74.5373 189.69C74.2001 184.49 74.7582 179.289 74.3687 174.088C73.2498 159.825 71.4043 155.017 57.7651 154.345V136.617C58.7707 136.393 59.7211 136.225 60.7266 136.114C68.219 135.722 71.4043 133.428 73.026 126.047C73.8107 121.91 74.2583 117.715 74.4239 113.464C74.9848 105.356 74.7611 97.0795 76.1561 89.0266C78.112 77.4503 85.2702 71.8568 97.1801 71.1853C100.534 71.0167 103.946 71.1853 107.803 71.1853V87.0701C106.181 87.1835 104.783 87.4044 103.33 87.4044C93.6577 87.0672 93.152 90.3668 92.4254 98.4197ZM111.043 135.219H110.819C105.228 134.94 100.421 139.3 100.139 144.894C99.8597 150.542 104.219 155.354 109.811 155.63H110.482C116.019 155.967 120.767 151.714 121.105 146.179V145.621C121.218 139.972 116.69 135.332 111.043 135.219ZM146.099 135.219C140.675 135.05 136.145 139.3 135.979 144.67C135.979 145.007 135.979 145.286 136.037 145.621C136.037 151.717 140.173 155.633 146.436 155.633C152.585 155.633 156.445 151.606 156.445 145.286C156.387 139.19 152.304 135.163 146.099 135.219ZM181.994 135.219C176.292 135.105 171.537 139.638 171.372 145.341C171.372 151.045 175.955 155.63 181.657 155.63H181.77C186.914 156.525 192.114 151.548 192.451 145.565C192.727 140.027 187.696 135.219 181.994 135.219ZM231.25 136.056C224.763 135.777 221.519 133.597 219.901 127.442C218.892 123.529 218.279 119.444 218.055 115.418C217.608 107.923 217.663 100.373 217.16 92.8786C215.986 75.0954 203.129 68.8886 184.453 71.9615V87.3986C187.414 87.3986 189.707 87.3986 192 87.4538C195.97 87.5091 198.99 89.0208 199.379 93.4397C199.772 97.4661 199.772 101.548 200.164 105.632C200.949 113.743 201.393 121.962 202.791 129.96C204.024 136.559 208.552 141.481 214.196 145.507C204.303 152.162 201.393 161.668 200.891 172.352C200.612 179.678 200.443 187.059 200.054 194.444C199.717 201.153 197.371 203.334 190.605 203.502C188.705 203.558 186.859 203.726 184.735 203.84V219.666C188.705 219.666 192.338 219.89 195.97 219.666C207.264 218.995 214.085 213.515 216.323 202.552C217.273 196.511 217.831 190.417 218 184.321C218.389 178.727 218.337 173.079 218.895 167.544C219.732 158.874 223.702 155.296 232.369 154.737C233.209 154.624 233.99 154.458 234.775 154.179V136.448C233.319 136.28 232.31 136.114 231.25 136.056Z" fill="#173647"/>
</svg>
